<svg width="155" height="155" viewBox="0 0 155 155" fill="none" xmlns="http://www.w3.org/2000/svg">
<path fill-rule="evenodd" clip-rule="evenodd" d="M115.596 48.1457C117.888 50.4284 117.896 54.137 115.613 56.429L66.2607 105.982C63.978 108.274 60.2696 108.282 57.9776 105.999L39.979 88.0751C37.6869 85.7925 37.6792 82.084 39.9618 79.7918C42.2444 77.4997 45.9529 77.492 48.245 79.7746L62.0936 93.5658L107.313 48.1625C109.596 45.8705 113.304 45.863 115.596 48.1457Z" fill="#004896"/>
<path fill-rule="evenodd" clip-rule="evenodd" d="M77.1586 11.7143C46.1114 11.7143 20.065 33.3937 13.379 62.4361L13.379 62.4362C12.2906 67.1635 11.7143 72.0909 11.7143 77.1586C11.7143 113.275 41.0421 142.603 77.1586 142.603C113.275 142.603 142.603 113.275 142.603 77.1586C142.603 41.0421 113.275 11.7143 77.1586 11.7143ZM1.96331 59.808C9.8455 25.5697 40.53 0 77.1586 0C119.745 0 154.317 34.5725 154.317 77.1586C154.317 119.745 119.745 154.317 77.1586 154.317C34.5725 154.317 0 119.745 0 77.1586C0 71.1999 0.677961 65.3909 1.96331 59.808Z" fill="#C2CDE0"/>
</svg>
